<?xml version="1.0" standalone="no"?><!DOCTYPE svg PUBLIC "-//W3C//DTD SVG 1.1//EN" "http://www.w3.org/Graphics/SVG/1.1/DTD/svg11.dtd"><svg t="1624331381187" class="icon" viewBox="0 0 1024 1024" version="1.1" xmlns="http://www.w3.org/2000/svg" p-id="13401" xmlns:xlink="http://www.w3.org/1999/xlink" width="200" height="200"><defs><style type="text/css"></style></defs><path d="M837.063111 887.466667V1024h-130.048v-136.533333H577.024v-136.533334h129.991111v-136.533333h130.048v136.533333H967.111111v136.533334h-130.048z m-390.087111 0c0 23.381333 2.958222 45.909333 6.542222 68.266666H57.514667A571.960889 571.960889 0 0 1 56.888889 927.800889c0-280.974222 174.648889-508.700444 390.087111-508.700445 85.219556 0 163.441778 36.579556 227.555556 96.995556-134.030222 64.853333-227.555556 206.279111-227.555556 371.370667z m3.640889-520.704c-108.771556 0-196.892444-82.147556-196.892445-183.409778 0-101.262222 88.120889-183.409778 196.892445-183.409778 108.714667 0 196.949333 82.147556 196.949333 183.409778 0 101.262222-88.234667 183.409778-196.949333 183.409778z" p-id="13402"></path></svg>