<?xml version="1.0" standalone="no"?><!DOCTYPE svg PUBLIC "-//W3C//DTD SVG 1.1//EN" "http://www.w3.org/Graphics/SVG/1.1/DTD/svg11.dtd"><svg t="1611024412887" class="icon" viewBox="0 0 1024 1024" version="1.1" xmlns="http://www.w3.org/2000/svg" p-id="30720" xmlns:xlink="http://www.w3.org/1999/xlink" width="200" height="200"><defs><style type="text/css"></style></defs><path d="M597.333333 256c-76.8 0-140.8 46.933333-162.133333 115.2-8.533333 29.866667 12.8 55.466667 38.4 55.466667 17.066667 0 34.133333-8.533333 42.666667-25.6 12.8-34.133333 42.666667-59.733333 81.066666-59.733334s68.266667 25.6 81.066667 59.733334c4.266667 17.066667 21.333333 25.6 42.666667 25.6 29.866667 0 51.2-25.6 38.4-55.466667-21.333333-68.266667-85.333333-115.2-162.133334-115.2zM832 554.666667C725.333333 554.666667 640 640 640 746.666667s85.333333 192 192 192 192-85.333333 192-192-85.333333-192-192-192z m0 341.333333c-12.8 0-21.333333-8.533333-21.333333-21.333333s8.533333-21.333333 21.333333-21.333334 21.333333 8.533333 21.333333 21.333334-8.533333 21.333333-21.333333 21.333333z m21.333333-106.666667c0 12.8-8.533333 21.333333-21.333333 21.333334s-21.333333-8.533333-21.333333-21.333334v-170.666666c0-12.8 8.533333-21.333333 21.333333-21.333334s21.333333 8.533333 21.333333 21.333334v170.666666z" p-id="30721"></path><path d="M345.6 426.666667c21.333333 0 38.4-17.066667 42.666667-38.4C405.333333 290.133333 490.666667 213.333333 597.333333 213.333333s192 76.8 209.066667 174.933334c4.266667 21.333333 21.333333 38.4 42.666667 38.4 25.6 0 46.933333-21.333333 42.666666-46.933334C870.4 234.666667 746.666667 128 597.333333 128S324.266667 234.666667 302.933333 379.733333c-4.266667 25.6 17.066667 46.933333 42.666667 46.933334z" p-id="30722"></path><path d="M597.333333 746.666667c0-81.066667 38.4-149.333333 98.133334-192H640v-128c0-25.6-17.066667-42.666667-42.666667-42.666667s-42.666667 17.066667-42.666666 42.666667v128H170.666667c-25.6 0-42.666667 17.066667-42.666667 42.666666v256c0 25.6 17.066667 42.666667 42.666667 42.666667h482.133333c-34.133333-42.666667-55.466667-93.866667-55.466667-149.333333zM256 768c-25.6 0-42.666667-17.066667-42.666667-42.666667s17.066667-42.666667 42.666667-42.666666 42.666667 17.066667 42.666667 42.666666-17.066667 42.666667-42.666667 42.666667z m128 0c-25.6 0-42.666667-17.066667-42.666667-42.666667s17.066667-42.666667 42.666667-42.666666 42.666667 17.066667 42.666667 42.666666-17.066667 42.666667-42.666667 42.666667z m128 0c-25.6 0-42.666667-17.066667-42.666667-42.666667s17.066667-42.666667 42.666667-42.666666 42.666667 17.066667 42.666667 42.666666-17.066667 42.666667-42.666667 42.666667z" p-id="30723"></path></svg>