<?xml version="1.0" standalone="no"?><!DOCTYPE svg PUBLIC "-//W3C//DTD SVG 1.1//EN" "http://www.w3.org/Graphics/SVG/1.1/DTD/svg11.dtd"><svg t="1610445020366" class="icon" viewBox="0 0 1024 1024" version="1.1" xmlns="http://www.w3.org/2000/svg" p-id="7794" xmlns:xlink="http://www.w3.org/1999/xlink" width="200" height="200"><defs><style type="text/css"></style></defs><path d="M972.772176 1024H51.162203a17.087167 17.087167 0 0 1-17.053924-17.087167v-68.248937a17.087167 17.087167 0 0 1 17.053924-17.053923h119.477194V546.157712a341.344415 341.344415 0 0 1 682.688829 0v375.419018h119.477193a17.087167 17.087167 0 0 1 17.053924 17.053923v68.28218a17.087167 17.087167 0 0 1-17.087167 17.087167zM550.612776 377.679577a8.543583 8.543583 0 0 0-6.382755 2.858942l-173.896828 202.785443a8.543583 8.543583 0 0 0 6.648703 13.99552h108.373859l-20.311787 141.816836a8.51034 8.51034 0 0 0 4.986527 8.776288 8.277635 8.277635 0 0 0 3.324351 0.764601 8.51034 8.51034 0 0 0 6.349512-2.892186l173.896828-202.785443a8.51034 8.51034 0 0 0-6.648703-13.962276H538.578623l20.311788-141.85008a8.543583 8.543583 0 0 0-8.477096-9.507645z" p-id="7795"></path><path d="M460.788798 0h102.390027v136.531117h-102.390027z" p-id="7796"></path><path d="M194.641215 98.799727l88.693698-51.195013 68.248937 118.247184-88.693699 51.195013z" p-id="7797"></path><path d="M13.297839 317.37584l51.195013-88.693699 118.247184 68.248937-51.195013 88.693699z" p-id="7798"></path><path d="M841.194342 296.897835l118.247184-68.248937L1010.63654 317.342597l-118.247184 68.248936z" p-id="7799"></path><path d="M672.350529 165.752167l68.248936-118.247184 88.693699 51.195014-68.348667 118.247183z" p-id="7800"></path></svg>