<?xml version="1.0" standalone="no"?><!DOCTYPE svg PUBLIC "-//W3C//DTD SVG 1.1//EN" "http://www.w3.org/Graphics/SVG/1.1/DTD/svg11.dtd"><svg t="1611024737938" class="icon" viewBox="0 0 1024 1024" version="1.1" xmlns="http://www.w3.org/2000/svg" p-id="31458" xmlns:xlink="http://www.w3.org/1999/xlink" width="200" height="200"><defs><style type="text/css"></style></defs><path d="M448.512 905.728h128l22.016-324.096h105.984V310.784c-30.208-30.208-74.752-49.664-124.416-49.664H440.32c-47.104 0-89.088 16.896-119.296 44.544v275.968h104.96l22.528 324.096zM507.904 214.016c58.88 0 107.008-47.616 107.008-107.008S566.784 0 507.904 0C449.024 0 400.896 48.128 400.896 107.008c0 59.392 48.128 107.008 107.008 107.008z" p-id="31459"></path><path d="M675.328 709.632v56.32c118.784 17.408 200.192 53.76 200.192 95.744 0 59.392-162.304 107.52-361.984 107.52-200.192 0-362.496-48.128-362.496-107.52 0-41.984 81.92-78.848 201.216-96.256v-56.32C153.6 730.624 11.264 790.528 11.264 861.696c0 89.088 224.768 161.28 501.76 161.28s501.76-72.192 501.76-160.768c0-71.168-142.336-131.072-339.456-152.576z" p-id="31460"></path></svg>