<?xml version="1.0" standalone="no"?><!DOCTYPE svg PUBLIC "-//W3C//DTD SVG 1.1//EN" "http://www.w3.org/Graphics/SVG/1.1/DTD/svg11.dtd"><svg t="1610591971620" class="icon" viewBox="0 0 1024 1024" version="1.1" xmlns="http://www.w3.org/2000/svg" p-id="20320" xmlns:xlink="http://www.w3.org/1999/xlink" width="200" height="200"><defs><style type="text/css"></style></defs><path d="M451.465846 980.755692 151.788308 980.755692c-60.494769 0-120.989538-57.540923-120.989538-112.167385l0-131.190154c0-27.766154 22.528-50.254769 50.254769-50.254769l70.695385 0L151.748923 133.789538C151.788308 73.334154 173.961846 39.384615 241.821538 39.384615l640.354462 0c67.899077 0 95.940923 32.452923 95.940923 88.497231l0 156.356923c0 27.766154-22.488615 50.254769-50.254769 50.254769l-69.198769 0c-52.066462-26.427077-110.788923-41.629538-173.213538-41.629538-212.046769 0-383.921231 171.874462-383.921231 383.960615C301.489231 800.689231 360.448 910.572308 451.465846 980.755692zM993.201231 676.903385c0 169.708308-138.082462 307.712-307.751385 307.712-169.668923 0-307.712-138.043077-307.712-307.712s138.082462-307.751385 307.712-307.751385C855.118769 369.112615 993.201231 507.195077 993.201231 676.903385zM495.891692 676.903385c0 30.129231 7.719385 58.289231 20.361846 83.574154l252.770462-252.809846c-25.284923-12.563692-53.405538-20.322462-83.574154-20.322462C580.923077 487.345231 495.891692 572.337231 495.891692 676.903385zM875.008 676.903385c0-31.232-8.349538-60.258462-21.779692-86.252308l-254.070154 254.030769c26.033231 13.469538 55.059692 21.779692 86.252308 21.779692C789.976615 866.422154 875.008 781.430154 875.008 676.903385z" p-id="20321"></path></svg>