<?xml version="1.0" standalone="no"?><!DOCTYPE svg PUBLIC "-//W3C//DTD SVG 1.1//EN" "http://www.w3.org/Graphics/SVG/1.1/DTD/svg11.dtd"><svg t="1610959709495" class="icon" viewBox="0 0 1024 1024" version="1.1" xmlns="http://www.w3.org/2000/svg" p-id="29368" xmlns:xlink="http://www.w3.org/1999/xlink" width="200" height="200"><defs><style type="text/css"></style></defs><path d="M680.91963872 451.14364931a50.49872974 50.49872974 0 0 1-50.49872974-50.50011058 119.93569138 119.93569138 0 1 0-239.87138274 0 50.49872974 50.49872974 0 1 1-100.99884032 0 220.9345317 220.9345317 0 1 1 441.86906338 0 50.49872974 50.49872974 0 0 1-50.50011058 50.50011058z" p-id="29369"></path><path d="M835.4481544 451.14364931a50.49872974 50.49872974 0 0 1-50.49872976-50.50011058 274.7169009 274.7169009 0 1 0-549.18110793 0 50.49872974 50.49872974 0 1 1-100.99884032 0 375.71436037 375.71436037 0 1 1 751.17740774 0 50.49872974 50.49872974 0 0 1-50.49872973 50.50011058z" p-id="29370"></path><path d="M953.86906337 603.77968961H562.49872974V429.81169683a50.49872974 50.49872974 0 1 0-100.99745948 0v173.96937362H70.13093663a63.12375739 63.12375739 0 0 0-63.12375739 63.12375738v283.04889442A63.12375739 63.12375739 0 0 0 70.13093663 1013.07886048h883.73812674a63.12375739 63.12375739 0 0 0 63.12375739-63.12513823V666.90344698A63.12375739 63.12375739 0 0 0 953.86906337 603.77968961zM162.79778341 859.05435172a50.49872974 50.49872974 0 1 1 50.49872975-50.50011058 50.49872974 50.49872974 0 0 1-50.49872975 50.50011058z m153.01235245 0a50.49872974 50.49872974 0 1 1 50.49872974-50.50011058 50.49872974 50.49872974 0 0 1-50.49872974 50.50011058z" p-id="29371"></path></svg>