<?xml version="1.0" standalone="no"?><!DOCTYPE svg PUBLIC "-//W3C//DTD SVG 1.1//EN" "http://www.w3.org/Graphics/SVG/1.1/DTD/svg11.dtd"><svg t="1625645298361" class="icon" viewBox="0 0 1024 1024" version="1.1" xmlns="http://www.w3.org/2000/svg" p-id="36856" xmlns:xlink="http://www.w3.org/1999/xlink" width="200" height="200"><defs><style type="text/css"></style></defs><path d="M747.52 552.96C878.36672 552.96 983.04 657.63328 983.04 788.48S878.36672 1024 747.52 1024 512 919.32672 512 788.48 616.67328 552.96 747.52 552.96z m0 71.68c-88.94464 0-163.84 74.89536-163.84 163.84s74.89536 163.84 163.84 163.84 163.84-74.89536 163.84-163.84-74.89536-163.84-163.84-163.84z m6.81984 51.2c19.68128 0 35.84 15.36 37.39648 34.89792l0.12288 3.13344v34.48832h36.1472v-2.10944c20.72576 0 37.51936 17.03936 37.51936 38.03136 0 19.94752-15.1552 36.31104-34.44736 37.888l-3.072 0.14336h-73.66656c-19.70176 0-35.84-15.36-37.41696-34.9184L716.8 784.2816v-70.41024C716.8 692.8384 733.5936 675.84 754.33984 675.84zM795.01312 0.06144a140.55424 140.55424 0 0 1 140.55424 140.55424V470.016a38.31808 38.31808 0 0 1-76.65664 0V140.55424a63.8976 63.8976 0 0 0-63.8976-63.8976H181.6576a63.8976 63.8976 0 0 0-63.8976 63.8976V881.664a63.8976 63.8976 0 0 0 63.8976 63.91808h240.14848a38.31808 38.31808 0 1 1 0 76.63616H181.67808a140.55424 140.55424 0 0 1-140.55424-140.55424V140.55424A140.55424 140.55424 0 0 1 181.67808 0L795.0336 0.06144zM457.50272 549.4784a38.31808 38.31808 0 0 1 0 76.63616H283.8528a38.31808 38.31808 0 1 1 0-76.63616h173.6704z m235.27424-204.47232a38.31808 38.31808 0 0 1 0 76.65664H283.91424a38.31808 38.31808 0 0 1 0-76.65664h408.86272z" p-id="36857"></path></svg>