<?xml version="1.0" standalone="no"?><!DOCTYPE svg PUBLIC "-//W3C//DTD SVG 1.1//EN" "http://www.w3.org/Graphics/SVG/1.1/DTD/svg11.dtd"><svg t="1610416323002" class="icon" viewBox="0 0 1024 1024" version="1.1" xmlns="http://www.w3.org/2000/svg" p-id="5795" xmlns:xlink="http://www.w3.org/1999/xlink" width="200" height="200"><defs><style type="text/css"></style></defs><path d="M164.352 1024a51.2 51.2 0 0 1-51.2-51.2V51.2A51.2 51.2 0 0 1 164.352 0h614.4a51.2 51.2 0 0 1 51.2 51.2v563.2a51.2 51.2 0 0 1-51.2 51.2H471.552a51.2 51.2 0 0 0-51.2 51.2v6.144a62.317714 62.317714 0 0 1 29.257143-6.144h409.6a45.275429 45.275429 0 0 1 51.2 51.2 45.275429 45.275429 0 0 1-51.2 51.2H449.609143a62.390857 62.390857 0 0 1-29.257143-6.144v6.144a51.2 51.2 0 0 0 51.2 51.2h307.2a51.2 51.2 0 0 1 51.2 51.2v51.2a51.2 51.2 0 0 1-51.2 51.2zM420.352 179.2v204.8a25.6 25.6 0 0 0 25.6 25.6h204.8a25.6 25.6 0 0 0 25.6-25.6v-204.8a25.6 25.6 0 0 0-25.6-25.6h-204.8a25.6 25.6 0 0 0-25.6 25.6z" p-id="5796"></path></svg>