<?xml version="1.0" standalone="no"?><!DOCTYPE svg PUBLIC "-//W3C//DTD SVG 1.1//EN" "http://www.w3.org/Graphics/SVG/1.1/DTD/svg11.dtd"><svg t="1610416592519" class="icon" viewBox="0 0 1024 1024" version="1.1" xmlns="http://www.w3.org/2000/svg" p-id="9559" xmlns:xlink="http://www.w3.org/1999/xlink" width="200" height="200"><defs><style type="text/css"></style></defs><path d="M755.5 629.8H542.9c-4.3 0-7.1 2.8-7.1 7.1 0 4.2 2.8 7.1 7.1 7.1h212.5c4.3 0 7.1-2.8 7.1-7.1 0.1-4.2-2.8-7.1-7-7.1zM755.5 563.2H542.9c-4.3 0-7.1 2.8-7.1 7.1s2.8 7.1 7.1 7.1h212.5c4.3 0 7.1-2.8 7.1-7.1 0.1-4.2-2.8-7.1-7-7.1z" p-id="9560"></path><path d="M877.7 0H146.3C65.5 0 0 65.5 0 146.3v731.3C0 958.5 65.5 1024 146.3 1024h731.3c80.8 0 146.3-65.5 146.3-146.3V146.3C1024 65.5 958.5 0 877.7 0z m-50 685.1c0 26.9-22.7 49.6-49.6 49.6h-357v48.2c0 26.9-22.7 49.6-49.6 49.6h-53.8c-26.9 0-49.6-22.7-49.6-49.6v-48.2H244c-26.9 0-49.6-22.7-49.6-49.6V339.4c0-26.9 21.3-49.6 49.6-49.6h24.1v-48.2c0-26.9 21.3-49.6 49.6-49.6h53.8c26.9 0 49.6 22.7 49.6 49.6v48.2h357.1c26.9 0 49.6 22.7 49.6 49.6v345.7z" p-id="9561"></path><path d="M731.4 380.5H567c-19.8 0-35.4 15.6-35.4 35.4v62.3c0 19.8 15.6 35.4 35.4 35.4h164.4c19.8 0 35.4-17 35.4-35.4v-62.3c0-19.9-15.6-35.4-35.4-35.4zM341.5 805c-28.2 0-51.1-22.9-51.1-51.1V261.1c0-28.2 22.9-51.1 51.1-51.1 28.2 0 51.1 22.9 51.1 51.1v492.8c0 28.2-22.9 51.1-51.1 51.1z" p-id="9562"></path></svg>