<?xml version="1.0" standalone="no"?><!DOCTYPE svg PUBLIC "-//W3C//DTD SVG 1.1//EN" "http://www.w3.org/Graphics/SVG/1.1/DTD/svg11.dtd"><svg t="1610416646259" class="icon" viewBox="0 0 1170 1024" version="1.1" xmlns="http://www.w3.org/2000/svg" p-id="12290" xmlns:xlink="http://www.w3.org/1999/xlink" width="228.515625" height="200"><defs><style type="text/css"></style></defs><path d="M553.691429 452.461714c54.345143-13.312 89.234286-69.12 81.481142-130.267428-5.997714-47.250286-39.131429-86.601143-81.115428-96.109715-4.169143-1.024-8.338286-1.755429-12.507429-2.633142h-1.170285c-0.438857 0.438857-0.950857 0.292571-1.316572 0.292571-0.512 0-1.170286 0.146286-1.682286-0.292571h-11.264c-0.365714 0.438857-0.731429 0.292571-1.170285 0.292571-0.365714 0-0.877714 0-1.170286-0.292571H521.508571c-0.146286 0.877714-0.877714 0.731429-1.462857 0.731428-3.657143 0.731429-7.387429 1.316571-11.044571 2.194286-55.954286 14.921143-89.965714 74.605714-78.262857 137.508571 11.190857 61.44 67.803429 102.107429 123.026285 88.576zM1142.491429 0.219429H28.233143C20.918857 0.219429 13.897143 3.437714 8.777143 9.142857a32.182857 32.182857 0 0 0-8.045714 21.504v959.488c0 8.045714 2.925714 15.798857 8.045714 21.577143 5.12 5.705143 12.141714 8.850286 19.382857 8.850286H1142.491429c7.314286 0 14.262857-3.145143 19.382857-8.850286a32.182857 32.182857 0 0 0 8.045714-21.577143V30.72a32.182857 32.182857 0 0 0-8.045714-21.504 26.112 26.112 0 0 0-19.382857-8.923429z m-240.274286 914.432h-727.04c-7.68 0-14.043429-7.021714-14.043429-15.652572 0-8.557714 6.436571-15.652571 14.116572-15.652571h727.04c7.753143 0 14.043429 6.948571 14.043428 15.652571 0 8.630857-6.290286 15.579429-14.116571 15.652572z m14.262857-92.818286c0 8.630857-6.363429 15.652571-14.116571 15.652571H175.250286c-7.753143 0-14.116571-7.021714-14.116572-15.652571s6.363429-15.652571 14.116572-15.652572h727.04c7.753143 0 14.189714 7.094857 14.189714 15.652572z m0-155.062857H690.468571c0.292571-0.438857 0.292571-1.024 0.292572-1.901715V505.563429c-0.658286-3.218286-0.365714-6.582857-1.316572-9.728a55.661714 55.661714 0 0 0-9.508571-19.602286 46.811429 46.811429 0 0 0-39.789714-19.748572 48.493714 48.493714 0 0 0-33.645715 16.457143 111.177143 111.177143 0 0 1-59.465142 33.206857 88.137143 88.137143 0 0 1-26.916572 1.243429 81.92 81.92 0 0 1-35.547428-15.506286c-11.410286-7.972571-21.796571-17.334857-32.621715-26.185143-4.096-3.218286-7.826286-6.656-12.653714-8.411428a48.054857 48.054857 0 0 0-22.235429-3.072 46.299429 46.299429 0 0 0-28.525714 14.482286 52.955429 52.955429 0 0 0-14.994286 33.353142v2.048a5.12 5.12 0 0 1 0 3.876572v156.745143c0 0.877714 0 1.462857 0.219429 1.901714H167.497143V146.944h748.909714v519.826286h0.146286z m131.072-5.705143c-16.091429 0-29.110857-14.482286-29.110857-32.329143 0-17.773714 13.092571-32.329143 29.110857-32.329143 16.091429 0 29.110857 14.555429 29.110857 32.329143 0 17.846857-13.092571 32.329143-29.110857 32.329143z m0-155.940572c-16.091429 0-29.110857-14.482286-29.110857-32.329142s13.092571-32.329143 29.110857-32.329143c16.091429 0 29.110857 14.482286 29.110857 32.329143s-13.092571 32.329143-29.110857 32.329142z m-674.011429-1.024c11.044571 2.413714 8.265143 4.900571 0 7.314286v-7.314286z m170.057143-274.505142c-2.194286 1.536-4.534857 3.072-6.363428-6.144h6.436571a16.530286 16.530286 0 0 1 0.877714 4.608c-0.438857 1.536-0.877714 1.536-0.877714 1.536z m-13.897143 0c-2.706286 1.536-5.485714 3.072-6.144-6.144h6.144c1.389714 1.536 1.389714 3.072 0.731429 4.608 0 0 0 1.536-0.731429 1.536z m-4.973714 0.292571v-6.436571h7.314286c-0.804571 8.045714-4.096 8.045714-7.314286 6.436571z m14.336 0.731429v-7.168h7.314286c-1.609143 8.923429-4.900571 7.168-7.314286 7.168z" p-id="12291"></path></svg>