<?xml version="1.0" standalone="no"?><!DOCTYPE svg PUBLIC "-//W3C//DTD SVG 1.1//EN" "http://www.w3.org/Graphics/SVG/1.1/DTD/svg11.dtd"><svg t="1610415567292" class="icon" viewBox="0 0 1024 1024" version="1.1" xmlns="http://www.w3.org/2000/svg" p-id="4697" xmlns:xlink="http://www.w3.org/1999/xlink" width="200" height="200"><defs><style type="text/css"></style></defs><path d="M917.477376 573.024256H753.96096V154.186752c0-81.743872-66.26816-148.012032-148.01408-148.012032H219.467776c-81.743872 0-148.012032 66.26816-148.012032 148.012032v717.280256c0 81.744896 66.26816 148.012032 148.012032 148.012032h386.479104c81.74592 0 148.01408-66.267136 148.01408-148.012032V682.478592h163.516416c21.23776 0 38.46144-17.222656 38.46144-38.464512v-32.53248c-0.001024-21.239808-17.217536-38.457344-38.46144-38.457344zM697.67168 871.467008c0 50.57536-41.14944 91.722752-91.7248 91.722752H219.467776c-50.576384 0-91.723776-41.148416-91.723776-91.722752V154.186752c0-50.57536 41.147392-91.723776 91.723776-91.723776h386.479104c50.576384 0 91.7248 41.148416 91.7248 91.723776v418.837504H311.887872c-21.235712 0-38.453248 17.217536-38.453248 38.458368v32.533504c0 21.240832 17.217536 38.464512 38.453248 38.464512H697.67168v188.986368z m0 0" p-id="4698"></path><path d="M661.31968 436.98176V178.597888c0-48.463872-39.292928-87.755776-87.757824-87.755776H251.85792c-48.464896 0-87.7568 39.291904-87.7568 87.755776V436.98176c0 48.462848 39.291904 87.755776 87.7568 87.755776h321.703936c48.464896-0.001024 87.757824-39.292928 87.757824-87.755776z m-440.92928 0V178.597888c0-17.349632 14.118912-31.46752 31.46752-31.46752h321.703936c17.35168 0 31.469568 14.117888 31.469568 31.46752V436.98176c0 17.348608-14.117888 31.46752-31.469568 31.46752H251.85792c-17.349632 0-31.46752-14.118912-31.46752-31.46752z m192.320512 460.532736c35.10784 0 63.57504-28.46208 63.57504-63.582208 0-35.108864-28.461056-63.577088-63.57504-63.577088-35.115008 0-63.582208 28.463104-63.582208 63.577088 0 35.121152 28.468224 63.582208 63.582208 63.582208z m0 0" p-id="4699"></path></svg>