<?xml version="1.0" standalone="no"?><!DOCTYPE svg PUBLIC "-//W3C//DTD SVG 1.1//EN" "http://www.w3.org/Graphics/SVG/1.1/DTD/svg11.dtd"><svg t="1610416502565" class="icon" viewBox="0 0 1377 1024" version="1.1" xmlns="http://www.w3.org/2000/svg" p-id="5936" xmlns:xlink="http://www.w3.org/1999/xlink" width="268.9453125" height="200"><defs><style type="text/css"></style></defs><path d="M35.310345 0h1306.482758a35.310345 35.310345 0 0 1 35.310345 35.310345v953.37931a35.310345 35.310345 0 0 1-35.310345 35.310345H35.310345a35.310345 35.310345 0 0 1-35.310345-35.310345V35.310345a35.310345 35.310345 0 0 1 35.310345-35.310345z m70.620689 70.62069v635.586207h706.206897V70.62069H105.931034z m776.827587 0v635.586207h423.724138V70.62069H882.758621z m-262.10869 711.644689a20.374069 20.374069 0 1 0 0-40.748138 20.374069 20.374069 0 0 0 0 40.748138z m0 135.803587a20.374069 20.374069 0 1 0 0-40.748138 20.374069 20.374069 0 0 0 0 40.748138z m67.901793-135.803587a20.374069 20.374069 0 1 0 0-40.748138 20.374069 20.374069 0 0 0 0 40.748138z m0 67.901793a20.374069 20.374069 0 1 0 0-40.748138 20.374069 20.374069 0 0 0 0 40.748138z m0 67.901794a20.374069 20.374069 0 1 0 0-40.748138 20.374069 20.374069 0 0 0 0 40.748138z m67.901793-135.803587a20.374069 20.374069 0 1 0 0-40.748138 20.374069 20.374069 0 0 0 0 40.748138z m0 67.901793a20.374069 20.374069 0 1 0 0-40.748138 20.374069 20.374069 0 0 0 0 40.748138z m0 67.901794a20.374069 20.374069 0 1 0 0-40.748138 20.374069 20.374069 0 0 0 0 40.748138z m-135.803586-67.901794a20.374069 20.374069 0 1 0 0-40.748138 20.374069 20.374069 0 0 0 0 40.748138z" p-id="5937"></path></svg>