<?xml version="1.0" standalone="no"?><!DOCTYPE svg PUBLIC "-//W3C//DTD SVG 1.1//EN" "http://www.w3.org/Graphics/SVG/1.1/DTD/svg11.dtd"><svg t="1615865946056" class="icon" viewBox="0 0 1228 1024" version="1.1" xmlns="http://www.w3.org/2000/svg" p-id="2663" xmlns:xlink="http://www.w3.org/1999/xlink" width="239.84375" height="200"><defs><style type="text/css"></style></defs><path d="M865.792 302.6432h2.048c-2.048-18.5344-2.048-37.0176-6.0416-53.76-3.9936-31.4368-20.1216-57.344-42.24-79.616a196.9152 196.9152 0 0 0-70.4-46.336c-34.2016-14.848-74.3936-22.2208-114.688-22.2208-14.0288 0-28.16 0-44.1856 1.8432-24.1664 0-46.2848 3.7376-68.4032 9.2672-38.2464 9.2672-72.3968 25.9584-100.5568 55.6032a155.648 155.648 0 0 0-34.2016 53.76c-10.0864 24.064-10.0864 49.9712-12.0832 75.9296 0 16.64 2.048 35.1744 2.048 51.8656 1.9968 14.848 1.9968 29.6448 3.9936 44.4416 3.9936 24.064 10.0352 48.1792 14.08 72.2432 10.0352 46.336 26.112 92.672 50.2784 133.4272 14.08 25.9072 34.2016 46.2848 58.368 62.976 24.064 16.6912 48.2304 29.6448 76.3904 37.0688 18.1248 3.6864 38.2464 7.3728 58.368 3.6864a238.2336 238.2336 0 0 0 70.3488-22.2208 249.344 249.344 0 0 0 76.4416-64.8704c16.128-22.2208 26.1632-44.4416 36.1984-68.5056 16.128-40.8064 28.16-83.4048 34.2016-126.0032 4.0448-25.9584 8.0384-50.0224 10.0864-75.9808 1.9968-14.7968 0-27.7504 0-42.5984z m-390.144 374.272v27.7504c0 9.2672-2.048 16.6912-8.0896 24.064-12.0832 14.848-26.112 24.1152-44.2368 27.8016-32.2048 9.2672-64.3584 16.6912-96.5632 24.064-38.1952 9.3184-74.3936 18.5856-112.64 27.8016-14.08 3.7376-26.112 5.5808-40.2432 11.1616 136.8064 146.3296 307.7632 214.8864 516.9664 194.5088 154.88-14.848 281.6-83.3536 382.1568-194.56-22.1184-5.5296-44.2368-11.1104-64.3584-14.7968l-150.8352-33.3312c-22.1696-5.5808-46.2848-9.2672-66.4064-20.3776-22.1184-11.1104-36.1984-25.9584-34.2016-50.0224v-9.2672h-1.9968l-6.0416 5.5296c-22.1184 20.3776-46.2336 37.0688-74.3936 46.336a143.616 143.616 0 0 1-92.5696 3.6864 189.8496 189.8496 0 0 1-82.432-48.128c-8.0384-3.7376-16.128-13.0048-24.1664-22.272z m738.1504 309.3504h-140.8v-31.488h106.5984V856.576h34.2016v129.6896z m-1049.9584 0H29.0816v-125.952h34.2016v94.464H163.84v31.488zM63.2832 152.576H29.0816V26.624h138.752v31.488H63.3344V152.576z m1150.5152 0h-34.2016V59.9552h-108.5952V26.624h142.848v125.952zM246.3232 43.264h752.2816v5.7344H246.272V43.264zM1093.12 499.0464H153.8048l-62.3616-3.7376 62.3616-3.6864H1093.12l62.3616 3.6864-62.3616 3.7376zM246.272 971.4688h752.3328v5.632H246.272v-5.632zM47.2064 817.664V219.2896h5.632V817.664H47.104z m1150.5664 0V219.2896h5.5808V817.664h-5.632z" p-id="2664"></path></svg>