<?xml version="1.0" standalone="no"?><!DOCTYPE svg PUBLIC "-//W3C//DTD SVG 1.1//EN" "http://www.w3.org/Graphics/SVG/1.1/DTD/svg11.dtd"><svg t="1610417219384" class="icon" viewBox="0 0 1024 1024" version="1.1" xmlns="http://www.w3.org/2000/svg" p-id="18804" xmlns:xlink="http://www.w3.org/1999/xlink" width="200" height="200"><defs><style type="text/css"></style></defs><path d="M170.666667 852.536889a70.485333 70.485333 0 0 1 3.413333-28.444445 174.990222 174.990222 0 0 1 23.324444-39.822222 524.913778 524.913778 0 0 1 103.537778-76.629333 548.977778 548.977778 0 0 0 104.675556-47.559111 52.053333 52.053333 0 0 0 3.413333-76.401778A656.952889 656.952889 0 0 1 341.333333 462.563556s-47.217778-178.574222 52.906667-250.88a178.688 178.688 0 0 1 105.813333-39.822223 241.834667 241.834667 0 0 1 97.28 19.171556 173.454222 173.454222 0 0 1 80.782223 89.941333 268.515556 268.515556 0 0 1 7.964444 159.744 398.734222 398.734222 0 0 1-75.662222 146.432 49.265778 49.265778 0 0 0 11.377778 80.725334 644.266667 644.266667 0 0 1 171.235555 86.698666 190.407111 190.407111 0 0 1 55.182222 67.925334 92.672 92.672 0 0 1 3.413334 28.956444zM905.671111 1024h-236.088889a39.367111 39.367111 0 0 1 0-78.734222h236.088889a39.424 39.424 0 0 0 39.253333-39.424v-196.892445a39.822222 39.822222 0 0 1 79.075556 0v196.892445A118.272 118.272 0 0 1 905.671111 1024zM315.164444 1024H118.328889A118.272 118.272 0 0 1 0 905.841778v-196.892445a39.253333 39.253333 0 1 1 78.506667 0v196.892445a39.822222 39.822222 0 0 0 39.822222 39.424h196.835555a39.367111 39.367111 0 0 1 0 78.734222zM39.253333 354.474667A39.367111 39.367111 0 0 1 0 315.050667V118.158222A118.272 118.272 0 0 1 118.328889 0h196.835555a39.367111 39.367111 0 0 1 0 78.734222H118.328889a39.822222 39.822222 0 0 0-39.822222 39.424v196.892445a39.367111 39.367111 0 0 1-39.253334 39.424z m945.493334 0a39.480889 39.480889 0 0 1-39.822223-39.424V118.158222a39.424 39.424 0 0 0-39.253333-39.424h-236.088889a39.367111 39.367111 0 0 1 0-78.734222h236.088889A118.272 118.272 0 0 1 1024 118.158222v196.892445a39.367111 39.367111 0 0 1-39.253333 39.424z m0 0" p-id="18805"></path></svg>