<?xml version="1.0" standalone="no"?><!DOCTYPE svg PUBLIC "-//W3C//DTD SVG 1.1//EN" "http://www.w3.org/Graphics/SVG/1.1/DTD/svg11.dtd"><svg t="1625647384869" class="icon" viewBox="0 0 1024 1024" version="1.1" xmlns="http://www.w3.org/2000/svg" p-id="38362" xmlns:xlink="http://www.w3.org/1999/xlink" width="200" height="200"><defs><style type="text/css"></style></defs><path d="M843.648 446.848c-19.712-20.736-46.592-32.256-75.776-32.256h-2.048c-8.192 0-16.128 0.896-23.936 2.816-19.712-26.624-50.304-42.496-84.352-42.496-8.704 0-17.28 1.024-25.728 3.072-19.712-26.752-50.304-42.88-84.608-42.88-1.152 0-2.304 0-3.584 0.128v-35.328c0-28.544-10.496-56.064-29.312-77.056-20.224-22.528-47.36-34.944-76.8-34.944-58.88 0-108.544 51.328-108.544 112v216.576c-19.2-14.976-43.776-22.784-70.144-22.144-28.928 0.768-55.936 11.776-74.24 30.08-18.688 18.688-31.616 44.544-35.2 70.656-4.48 33.024 6.016 64.256 29.44 87.68l0.128 0.128L391.68 894.208c5.376 5.376 11.52 10.24 18.304 14.464 41.984 33.792 92.032 56.32 195.968 56.32 110.08 0 183.424-29.44 224.64-89.984 35.2-51.712 42.368-117.76 42.368-201.216V522.624c0.256-28.8-10.368-55.808-29.312-75.776z m-35.328 226.944c0 71.296-5.248 126.592-31.232 164.736-17.92 26.496-55.168 61.568-171.008 61.568-86.528 0-124.16-16.512-156.672-43.008-1.152-0.896-2.432-1.792-3.712-2.688-3.2-1.92-5.888-4.096-8.192-6.272L224.768 636.672c-23.04-23.04-6.016-54.912 5.632-66.688 6.528-6.528 18.048-10.752 30.08-11.008 12.8-0.256 24.32 3.712 31.872 11.136l46.336 46.08c9.344 9.216 23.168 11.904 35.328 7.04 12.032-5.12 19.968-16.768 19.968-29.952V299.648c0-24.704 20.864-47.232 43.776-47.232 24.704 0 41.216 24.448 41.216 47.232v35.584c-0.256 1.92-0.512 3.84-0.512 5.888v171.392c0 17.92 14.464 32.384 32.384 32.384s32.384-14.464 32.384-32.384V400.64c1.664-0.64 3.072-0.896 4.096-0.896 16.64 0 30.336 9.216 37.248 24.96v119.936c0 17.92 14.464 32.384 32.384 32.384s32.384-14.464 32.384-32.384V440.32c2.688-0.512 5.376-0.768 8.064-0.768 16.64 0 30.336 9.216 37.248 24.96v113.664c0 17.92 14.464 32.384 32.384 32.384s32.384-14.464 32.384-32.384v-98.304c2.048-0.256 4.096-0.512 6.144-0.512h2.048c14.336 0 23.552 6.528 28.672 12.032 7.552 8.064 11.776 19.072 11.776 31.232l0.256 151.168z" p-id="38363"></path><path d="M277.248 282.624c17.92 0 32.384-14.464 32.384-32.384 0-69.76 56.704-126.464 126.464-126.464s126.464 56.704 126.464 126.464c0 17.92 14.464 32.384 32.384 32.384s32.384-14.464 32.384-32.384c0-105.472-85.76-191.232-191.232-191.232s-191.232 85.76-191.232 191.232c0 17.792 14.464 32.384 32.384 32.384z" p-id="38364"></path></svg>