<?xml version="1.0" standalone="no"?><!DOCTYPE svg PUBLIC "-//W3C//DTD SVG 1.1//EN" "http://www.w3.org/Graphics/SVG/1.1/DTD/svg11.dtd"><svg t="1626426518045" class="icon" viewBox="0 0 1024 1024" version="1.1" xmlns="http://www.w3.org/2000/svg" p-id="1706" xmlns:xlink="http://www.w3.org/1999/xlink" width="200" height="200"><defs><style type="text/css"></style></defs><path d="M512 926.25224691H97.74775309V97.74775309h414.25224691v103.56306173h103.56306173V97.74775309c0-57.16681008-46.39625165-103.56306173-103.56306173-103.56306173H97.74775309c-57.16681008 0-103.56306173 46.39625165-103.56306173 103.56306173v828.50449382c0 57.16681008 46.39625165 103.56306173 103.56306173 103.56306173h414.25224691c57.16681008 0 103.56306173-46.39625165 103.56306173-103.56306173v-207.12612344H512v207.12612344z" p-id="1707"></path><path d="M253.23042976 771.0457384h103.56306173v103.56306174h-103.56306173zM1029.81530864 512v-103.56306173h-60.75699621c-4.69485881-18.22709886-12.15139925-35.62569324-21.54111685-51.64344678l43.08223369-43.08223369-73.18456364-73.1845636-43.08223366 43.08223366c-16.01775355-9.3897176-33.14017975-16.57008987-51.64344679-21.54111684v-60.7569962H719.12612347v60.7569962c-18.22709886 4.69485881-35.62569324 12.15139925-51.64344679 21.54111684l-43.08223368-43.08223366-73.18456363 73.1845636 43.08223368 43.08223369c-9.3897176 16.01775355-16.57008987 33.14017975-21.54111684 51.64344678h-60.75699621V512h61.03316438c4.69485881 18.22709886 12.15139925 35.62569324 21.54111684 51.64344678l-43.08223368 43.08223368 73.18456363 73.18456363 43.08223366-43.08223369c16.01775355 9.3897176 33.14017975 16.57008987 51.64344679 21.54111685v60.75699622h103.56306172v-60.75699622c18.22709886-4.69485881 35.62569324-12.15139925 51.6434468-21.54111685l43.08223366 43.08223369 73.18456363-73.18456363-43.08223368-43.08223368c9.3897176-16.01775355 16.57008987-33.14017975 21.54111684-51.64344678h60.48082805z m-258.76957024 49.98643779c-56.06213742 0-101.90605275-45.84391532-101.90605274-101.90605274 0-56.06213742 45.84391532-101.90605275 101.90605274-101.90605275 56.06213742 0 101.90605275 45.56774717 101.90605274 101.90605275s-45.84391532 101.90605275-101.90605274 101.90605274z" p-id="1708"></path></svg>