<?xml version="1.0" standalone="no"?><!DOCTYPE svg PUBLIC "-//W3C//DTD SVG 1.1//EN" "http://www.w3.org/Graphics/SVG/1.1/DTD/svg11.dtd"><svg t="1610590715104" class="icon" viewBox="0 0 1024 1024" version="1.1" xmlns="http://www.w3.org/2000/svg" p-id="9551" xmlns:xlink="http://www.w3.org/1999/xlink" width="200" height="200"><defs><style type="text/css"></style></defs><path d="M883.026674 1023.996587H140.287817c-29.866567 0.341332-54.442485-31.402562-54.954484-71.167763V716.797611c0-20.906597 48.213173-80.981063 110.591632-118.10094a386.046713 386.046713 0 0 1 148.479505-47.189176l93.354355 448.595838h19.626601l15.701281-377.684074c-9.727968-0.341332-17.407942-11.093296-17.151942-24.149253 0.255999-12.970623 8.362639-23.210589 18.175939-22.869257h74.239753c9.727968-0.341332 17.91994 9.898634 18.175939 22.869257 0.255999 12.970623-7.423975 23.807921-17.237276 24.149253l15.786614 377.684074h21.162596l92.757024-448.595838S938.663822 557.224809 938.663822 716.712278v236.116546a85.162383 85.162383 0 0 1-16.725277 50.94383 48.213173 48.213173 0 0 1-38.911871 20.223933zM298.665956 255.999147c0 91.477028 40.618531 175.956747 106.666311 221.695261a183.03939 183.03939 0 0 0 213.332622 0C684.712669 431.955893 725.3312 347.476175 725.3312 255.999147 725.3312 164.522118 684.712669 80.0424 618.664889 34.303886a183.03939 183.03939 0 0 0-213.332622 0C339.284487 80.0424 298.665956 164.522118 298.665956 255.999147z" p-id="9552"></path></svg>