<?xml version="1.0" standalone="no"?><!DOCTYPE svg PUBLIC "-//W3C//DTD SVG 1.1//EN" "http://www.w3.org/Graphics/SVG/1.1/DTD/svg11.dtd"><svg t="1611044571918" class="icon" viewBox="0 0 1024 1024" version="1.1" xmlns="http://www.w3.org/2000/svg" p-id="35356" xmlns:xlink="http://www.w3.org/1999/xlink" width="200" height="200"><defs><style type="text/css"></style></defs><path d="M182.8864 116.9408v131.6864H116.9408V84.1728c0-18.2272 14.7456-32.9728 32.9728-32.9728h164.6592v65.7408H182.8864zM841.1136 116.9408h-131.6864V51.2h164.4544c18.2272 0 32.9728 14.7456 32.9728 32.9728v164.6592h-65.7408V116.9408zM841.1136 446.2592h65.7408v164.6592c0 18.2272-14.7456 32.9728-32.9728 32.9728h-164.6592v-65.7408h131.6864v-131.8912zM182.8864 577.9456h131.6864v65.7408H149.9136c-18.2272 0-32.9728-14.7456-32.9728-32.9728v-164.6592h65.7408l0.2048 131.8912z" p-id="35357"></path><path d="M890.6752 798.72c10.0352 5.9392 16.384 16.7936 16.384 28.4672v112.8448c0 18.2272-14.7456 32.9728-32.9728 32.9728H149.9136c-18.2272 0-32.9728-14.7456-32.9728-32.9728v-112.8448c0-11.6736 6.144-22.528 16.384-28.4672l296.3456-172.8512a197.59104 197.59104 0 0 1-115.3024-179.6096v-131.6864c0-109.1584 88.4736-197.4272 197.4272-197.4272s197.4272 88.4736 197.4272 197.4272v131.6864c0 79.6672-47.3088 148.48-115.3024 179.6096L890.6752 798.72z" p-id="35358"></path></svg>