<?xml version="1.0" standalone="no"?><!DOCTYPE svg PUBLIC "-//W3C//DTD SVG 1.1//EN" "http://www.w3.org/Graphics/SVG/1.1/DTD/svg11.dtd"><svg t="1624412351186" class="icon" viewBox="0 0 1097 1024" version="1.1" xmlns="http://www.w3.org/2000/svg" p-id="5817" xmlns:xlink="http://www.w3.org/1999/xlink" width="214.2578125" height="200"><defs><style type="text/css"></style></defs><path d="M619.664958 72.411273L710.508192 7.679984a38.034204 38.034204 0 0 1 42.642194-0.877713l314.001613 205.018989v775.312625c0 20.187385-16.676536 36.57135-37.302777 36.57135h-149.211109c20.699384 0 37.37592-16.383965 37.37592-36.57135V284.817675L619.591815 72.411273z" p-id="5818"></path><path d="M559.468515 1023.997806v-292.131946a72.264988 72.264988 0 0 0-21.94281-51.638746 75.336981 75.336981 0 0 0-52.735887-21.357669h-149.211109a73.874127 73.874127 0 0 0-74.532411 72.996415V1023.997806H37.302777a36.937064 36.937064 0 0 1-37.302777-36.57135V285.110246L388.241454 8.630839a37.741633 37.741633 0 0 1 43.88562 0l388.460882 276.479407V987.426456c0 9.727979-3.949706 19.017102-10.971405 25.892515a37.741633 37.741633 0 0 1-26.477658 10.678835H559.541658z" p-id="5819"></path></svg>