<?xml version="1.0" standalone="no"?><!DOCTYPE svg PUBLIC "-//W3C//DTD SVG 1.1//EN" "http://www.w3.org/Graphics/SVG/1.1/DTD/svg11.dtd"><svg t="1610417383994" class="icon" viewBox="0 0 1024 1024" version="1.1" xmlns="http://www.w3.org/2000/svg" p-id="25947" xmlns:xlink="http://www.w3.org/1999/xlink" width="200" height="200"><defs><style type="text/css"></style></defs><path d="M1024 307.2V0H307.2v102.4H102.4V0H0v921.6h307.2V1024H1024V716.8H307.2v102.4H102.4v-256h204.8v102.4H1024V358.4H307.2v102.4H102.4v-256h204.8v102.4H1024zM614.4 102.4h307.2v102.4H614.4V102.4z m-209.92 0h102.4v102.4h-102.4V102.4zM614.4 819.2h307.2v102.4H614.4V819.2z m-209.92 0h102.4v102.4h-102.4V819.2zM614.4 460.8h307.2v102.4H614.4V460.8z m-209.92 0h102.4v102.4h-102.4V460.8z" fill="" p-id="25948"></path></svg>