<?xml version="1.0" standalone="no"?><!DOCTYPE svg PUBLIC "-//W3C//DTD SVG 1.1//EN" "http://www.w3.org/Graphics/SVG/1.1/DTD/svg11.dtd"><svg t="1610417524804" class="icon" viewBox="0 0 1024 1024" version="1.1" xmlns="http://www.w3.org/2000/svg" p-id="27108" xmlns:xlink="http://www.w3.org/1999/xlink" width="200" height="200"><defs><style type="text/css"></style></defs><path d="M376.548448 124.081263h271.123702a19.42906 19.42906 0 0 0 19.42906-19.649844V31.130874a30.689084 30.689084 0 0 0-9.052176-22.078478 31.130653 31.130653 0 0 0-22.078477-9.052175H387.808471a31.130653 31.130653 0 0 0-22.078477 9.052175 31.572223 31.572223 0 0 0-9.052176 22.078478v73.300545a19.649845 19.649845 0 0 0 19.87063 19.649844z" p-id="27109"></path><path d="M937.341772 71.092918a31.130653 31.130653 0 0 0-22.078477-9.052176h-167.796428a18.325136 18.325136 0 0 0-18.325136 18.325136v94.495883a11.260023 11.260023 0 0 1-11.260023 11.260024H306.118105a11.260023 11.260023 0 0 1-11.260023-11.260024V80.365878A18.325136 18.325136 0 0 0 276.312161 62.040742H108.736518a31.572223 31.572223 0 0 0-22.078478 9.052176 31.572223 31.572223 0 0 0-9.052175 22.078477v862.60611a68.222495 68.222495 0 0 0 68.222495 68.222495h732.343093a68.222495 68.222495 0 0 0 68.222495-68.222495V93.171395a31.572223 31.572223 0 0 0-9.052176-22.078477zM232.155206 356.788415a30.909868 30.909868 0 0 1 30.909868-30.909869h497.20731a31.130653 31.130653 0 0 1 22.078477 9.052176 30.468299 30.468299 0 0 1 9.272961 22.078477v39.078905a22.078477 22.078477 0 0 1-22.078477 22.078478H255.999962a22.078477 22.078477 0 0 1-22.078478-22.078478zM232.155206 574.040632a31.130653 31.130653 0 0 1 9.052176-22.078478 30.247514 30.247514 0 0 1 22.078477-9.052175h496.986525A31.351438 31.351438 0 0 1 791.403037 574.040632v31.130653a30.468299 30.468299 0 0 1-9.27296 22.078477 31.130653 31.130653 0 0 1-22.078478 9.052176H263.727429A30.909868 30.909868 0 0 1 232.155206 605.171285z m309.098683 248.162085a31.572223 31.572223 0 0 1-9.052176 22.078477 31.130653 31.130653 0 0 1-22.078477 9.052176H263.727429a31.130653 31.130653 0 0 1-22.078478-9.052176 31.572223 31.572223 0 0 1-9.052175-22.078477v-30.909868a31.130653 31.130653 0 0 1 9.052175-22.078478 30.468299 30.468299 0 0 1 22.078478-9.27296h248.38287a30.468299 30.468299 0 0 1 22.078477 9.27296 31.130653 31.130653 0 0 1 9.052176 22.078478z m331.17716 131.36694a16.779643 16.779643 0 0 1-11.480808 4.194911H629.567798a16.558858 16.558858 0 0 1-7.948252-2.207848c-4.194911-2.428633-9.71453-6.623543-9.71453-10.156099a135.782636 135.782636 0 0 1 85.664492-124.964182 88.313909 88.313909 0 0 1-37.091842-76.391532 86.326846 86.326846 0 0 1 81.911151-80.365657 85.002138 85.002138 0 0 1 88.31391 85.443707 83.456644 83.456644 0 0 1-36.871057 69.767988 132.470864 132.470864 0 0 1 86.326846 124.081043 15.675719 15.675719 0 0 1-5.519619 10.597669z" p-id="27110"></path></svg>