<?xml version="1.0" standalone="no"?><!DOCTYPE svg PUBLIC "-//W3C//DTD SVG 1.1//EN" "http://www.w3.org/Graphics/SVG/1.1/DTD/svg11.dtd"><svg t="1619335360812" class="icon" viewBox="0 0 1024 1024" version="1.1" xmlns="http://www.w3.org/2000/svg" p-id="3126" xmlns:xlink="http://www.w3.org/1999/xlink" width="200" height="200"><defs><style type="text/css"></style></defs><path d="M875.755596 316.686342l-0.499939-0.499939L558.794288 19.122666c-25.896839-25.496888-67.691737-25.496888-93.588576 0L148.644355 316.186403c-0.199976 0.099988-0.299963 0.299963-0.499939 0.499939-13.998291 13.898303-18.097791 34.695765-10.598706 52.893543 7.499085 18.297766 25.196924 30.096326 44.994507 30.096326h167.579544c2.799658 0 4.99939 2.199731 4.999389 4.899402V778.929916c0 36.595533 29.896351 66.391896 66.591872 66.391895h180.477969c36.695521 0 66.591871-29.796363 66.591871-66.391895V404.575613c0-2.69967 2.199731-4.899402 4.999389-4.899402h167.579544c19.797583 0 37.495423-11.79856 44.994507-30.096326 7.599072-18.197779 3.399585-38.99524-10.598706-52.893543z m-29.696375 36.195582c-0.799902 1.999756-2.399707 3.099622-4.599438 3.099621H673.780251c-26.796729 0-48.694056 21.797339-48.694055 48.594068V778.929916c0 12.498474-10.298743 22.697229-22.897205 22.697229H421.811009c-12.598462 0-22.897205-10.198755-22.897205-22.697229V404.575613c0-26.796729-21.797339-48.594068-48.694055-48.594068H182.640205c-2.199731 0-3.799536-0.999878-4.599438-3.099621-0.799902-1.899768-0.499939-3.599561 0.89989-5.099378l316.461369-296.963749c0.199976-0.099988 0.299963-0.299963 0.499939-0.499939 8.898914-8.898914 23.497132-8.898914 32.396045 0l0.499939 0.499939 316.46137 296.963749c1.199854 1.499817 1.599805 3.199609 0.799902 5.099378zM645.583693 890.316319H378.416307c-12.298499 0-22.297278 9.998779-22.297279 22.297278s9.998779 22.297278 22.297279 22.297278h267.267374c12.298499 0 22.297278-9.998779 22.297278-22.297278-0.099988-12.398487-10.098767-22.297278-22.397266-22.297278zM645.583693 979.405444H378.416307c-12.298499 0-22.297278 9.998779-22.297279 22.297278s9.998779 22.297278 22.297279 22.297278h267.267374c12.298499 0 22.297278-9.998779 22.297278-22.297278s-10.098767-22.297278-22.397266-22.297278z" fill="" p-id="3127"></path></svg>