<?xml version="1.0" standalone="no"?><!DOCTYPE svg PUBLIC "-//W3C//DTD SVG 1.1//EN" "http://www.w3.org/Graphics/SVG/1.1/DTD/svg11.dtd"><svg t="1610533296449" class="icon" viewBox="0 0 1024 1024" version="1.1" xmlns="http://www.w3.org/2000/svg" p-id="17733" xmlns:xlink="http://www.w3.org/1999/xlink" width="200" height="200"><defs><style type="text/css"></style></defs><path d="M731.428571 475.428571c80.274286 0 145.554286 64.969143 146.285715 145.590858a147.017143 147.017143 0 0 1-54.674286 114.523428l-4.059429 3.145143 4.077715 1.718857C898.413714 773.174857 950.857143 845.074286 950.857143 928.274286c0 12.470857-10.733714 22.582857-23.954286 22.582857H535.954286c-13.220571 0-23.954286-10.112-23.954286-22.582857 0-83.894857 53.339429-156.306286 129.737143-188.708572 0.091429-0.018286 0.841143-0.365714 2.102857-0.877714A147.163429 147.163429 0 0 1 585.142857 621.019429C585.874286 540.397714 651.154286 475.428571 731.428571 475.428571zM457.910857 73.654857c186.587429 9.545143 337.481143 160.420571 346.148572 346.112 0.256 4.882286 0.420571 9.728 0.475428 14.573714A199.570286 199.570286 0 0 0 731.428571 420.571429c-110.445714 0-200.155429 89.289143-201.142857 199.972571l0.091429 6.235429c1.005714 32.914286 9.837714 64.329143 25.142857 92.032l3.492571 6.070857-0.896 0.676571a266.057143 266.057143 0 0 0-66.157714 75.209143c-23.369143 3.419429-47.451429 4.571429-72.009143 3.291429-183.478857-8.521143-333.293714-156.617143-345.929143-339.803429l-0.365714-6.326857-0.365714-8.886857C67.291429 236.251429 244.114286 62.537143 457.910857 73.636571z m-16.530286 135.113143a32.018286 32.018286 0 0 0-23.003428 9.728 33.645714 33.645714 0 0 0-9.508572 23.588571v143.908572h-97.499428a32 32 0 0 0-23.021714 9.728 33.645714 33.645714 0 0 0-9.490286 23.588571c0.566857 18.377143 15.177143 33.042286 33.133714 33.261715h161.92V242.084571c0-8.850286-3.419429-17.316571-9.508571-23.588571a32.091429 32.091429 0 0 0-23.021715-9.728z" p-id="17734"></path></svg>