<?xml version="1.0" standalone="no"?><!DOCTYPE svg PUBLIC "-//W3C//DTD SVG 1.1//EN" "http://www.w3.org/Graphics/SVG/1.1/DTD/svg11.dtd"><svg t="1610590944660" class="icon" viewBox="0 0 1024 1024" version="1.1" xmlns="http://www.w3.org/2000/svg" p-id="18948" xmlns:xlink="http://www.w3.org/1999/xlink" width="200" height="200"><defs><style type="text/css"></style></defs><path d="M817.3568 206.4384c-50.9952 0-92.16-41.1648-92.16-92.16s41.1648-92.16 92.16-92.16 92.16 41.1648 92.16 92.16-41.3696 92.16-92.16 92.16zM694.272 605.5936v30.72h92.16v61.44h-92.16v-30.72h-61.44v30.72h-92.16v-61.44h92.16v-30.72h61.44z m-61.44 153.8048h61.44v-30.72h92.16v92.16H540.672v-92.16h92.16v30.72z m153.6 245.76h-92.16v-153.6h92.16v153.6z m154.4192-337.7152H1001.472V343.6544c0-58.5728-47.9232-106.496-106.496-106.496h-155.648c-58.5728 0-106.496 47.9232-106.496 106.496v231.6288h61.44v-215.04h30.9248v214.8352l91.9552 30.72v399.36h91.3408V360.2432h32.5632v307.2z" p-id="18949"></path><path d="M512 749.7728c-131.8912 48.3328-285.0816 3.6864-368.4352-117.1456-98.7136-143.1552-62.464-339.968 80.6912-438.6816 132.096-91.136 309.8624-67.3792 414.1056 49.152l56.7296-39.1168C568.9344 56.32 348.5696 24.7808 185.344 137.4208c-174.2848 120.0128-218.3168 359.6288-98.304 534.1184 96.4608 139.8784 269.9264 195.9936 424.96 150.3232v-72.0896z" p-id="18950"></path><path d="M434.3808 391.168c1.4336-3.8912 2.2528-7.9872 2.2528-12.288v-127.1808c0-18.8416-15.36-34.2016-34.2016-34.2016s-34.2016 15.36-34.2016 34.2016V378.88c0 4.3008 0.8192 8.3968 2.2528 12.288-20.8896 11.264-35.0208 33.5872-35.0208 58.9824 0 4.096 0.4096 8.192 1.024 12.0832-4.7104 1.2288-9.216 3.4816-13.312 6.7584l-130.8672 108.7488c-14.5408 12.0832-16.5888 33.792-4.5056 48.3328 6.7584 8.192 16.5888 12.288 26.4192 12.288 7.5776 0 15.5648-2.6624 21.9136-7.9872l130.8672-108.7488c3.4816-3.072 6.3488-6.5536 8.3968-10.24 8.192 3.6864 17.408 5.7344 27.0336 5.7344 37.0688 0 67.1744-30.1056 67.1744-67.1744 0-25.1904-14.336-47.5136-35.2256-58.7776z m-31.9488 91.7504c-18.0224 0-32.768-14.7456-32.768-32.768s14.7456-32.768 32.768-32.768 32.768 14.7456 32.768 32.768-14.5408 32.768-32.768 32.768z" p-id="18951"></path></svg>